<svg width="23" height="24" viewBox="0 0 23 24" fill="none" xmlns="http://www.w3.org/2000/svg">
<path d="M10.4748 1L10.8444 1.33669C10.9862 1.18102 11.0153 0.953211 10.9171 0.766927C10.819 0.580643 10.6146 0.475812 10.4061 0.504742L10.4748 1ZM22.3788 15.5483L22.8505 15.7143C22.9204 15.5155 22.8583 15.2942 22.695 15.1609C22.5317 15.0277 22.3024 15.0111 22.1217 15.1195L22.3788 15.5483ZM12 22.3951C6.20101 22.3951 1.5 17.6941 1.5 11.8951H0.5C0.5 18.2464 5.64873 23.3951 12 23.3951V22.3951ZM17.5 16.3951C12.5294 16.3951 8.5 12.3657 8.5 7.39511H7.5C7.5 12.918 11.9772 17.3951 17.5 17.3951V16.3951ZM8.5 7.39511C8.5 5.0614 9.38758 2.93616 10.8444 1.33669L10.1051 0.663311C8.48711 2.43972 7.5 4.80272 7.5 7.39511H8.5ZM1.5 11.8951C1.5 6.59055 5.43403 2.20399 10.5435 1.49526L10.4061 0.504742C4.80901 1.28111 0.5 6.08448 0.5 11.8951H1.5ZM22.1217 15.1195C20.7712 15.9294 19.1907 16.3951 17.5 16.3951V17.3951C19.3769 17.3951 21.1344 16.8776 22.636 15.9771L22.1217 15.1195ZM21.9072 15.3823C20.4692 19.4679 16.5758 22.3951 12 22.3951V23.3951C17.0132 23.3951 21.276 20.1876 22.8505 15.7143L21.9072 15.3823Z" fill="black"/>
</svg>
